<svg id="Layer_1" enable-background="new 0 0 512 512" version="1.1" viewBox="150 150 210 210" height="312px" width="312px" xml:space="preserve" xmlns="http://www.w3.org/2000/svg" xmlns:xlink="http://www.w3.org/1999/xlink" class="v-icon__component theme--light primary--text" style="font-size: 40px; height: 40px; width: 40px;"><g><circle cx="256" cy="256" fill="none" r="91.3" stroke="currentColor" stroke-linecap="round" stroke-linejoin="round" stroke-miterlimit="10" stroke-width="10"></circle> <path d="   M315.6,186.9c-16,13.8-36.8,22.2-59.6,22.2c-22.8,0-43.6-8.3-59.6-22.1" fill="none" stroke="currentColor" stroke-linecap="round" stroke-linejoin="round" stroke-miterlimit="10" stroke-width="10"></path> <path d="   M196.4,325.1c16-13.8,36.8-22.2,59.6-22.2c22.8,0,43.6,8.4,59.6,22.2" fill="none" stroke="currentColor" stroke-linecap="round" stroke-linejoin="round" stroke-miterlimit="10" stroke-width="10"></path> <path d="   M256,164.7c-23,18.2-38.5,52.3-38.5,91.3c0,39,15.5,73.1,38.5,91.3c23-18.2,38.5-52.3,38.5-91.3C294.5,217,279,182.9,256,164.7z" fill="none" stroke="currentColor" stroke-linecap="round" stroke-linejoin="round" stroke-miterlimit="10" stroke-width="10"></path> <line fill="none" stroke="currentColor" stroke-linecap="round" stroke-linejoin="round" stroke-miterlimit="10" stroke-width="10" x1="164.7" x2="347.3" y1="256" y2="256"></line></g></svg>