<svg enable-background="new 0 0 24 24" version="1.1" viewBox="0 0 24 24" xml:space="preserve" xmlns="http://www.w3.org/2000/svg" xmlns:xlink="http://www.w3.org/1999/xlink" class="v-icon__component theme--light primary--text" style="font-size: 40px; height: 40px; width: 40px;"><g><path d="M17,22H7c-2.7614236,0-5-2.2385769-5-5V7c0-2.7614236,2.2385764-5,5-5h10c2.7614231,0,5,2.2385764,5,5v10   C22,19.7614231,19.7614231,22,17,22z" fill="#FFFFFF"></path> <radialGradient id="SVGID_1_" cx="2.4583333" cy="22.208334" gradientUnits="userSpaceOnUse" r="26.8152752"><stop offset="0" style="stop-color: rgb(255, 211, 90);"></stop> <stop offset="0.2548544" style="stop-color: rgb(247, 150, 76);"></stop> <stop offset="0.5995145" style="stop-color: rgb(240, 91, 112);"></stop> <stop offset="0.7174556" style="stop-color: rgb(189, 97, 134);"></stop> <stop offset="0.8532288" style="stop-color: rgb(133, 101, 155);"></stop> <stop offset="0.9509482" style="stop-color: rgb(92, 102, 169);"></stop> <stop offset="1" style="stop-color: rgb(71, 102, 176);"></stop></radialGradient> <path d="M17.0219727,1H6.9780273C3.6816406,1,1,3.6816406,1,6.9780273v10.0439453   C1,20.3183594,3.6816406,23,6.9780273,23h10.0439453C20.3183594,23,23,20.3183594,23,17.0219727V6.9780273   C23,3.6816406,20.3183594,1,17.0219727,1z M21,17.0219727C21,19.215332,19.215332,21,17.0219727,21H6.9780273   C4.784668,21,3,19.215332,3,17.0219727V6.9780273C3,4.784668,4.784668,3,6.9780273,3h10.0439453   C19.215332,3,21,4.784668,21,6.9780273V17.0219727z M12,6c-3.3085938,0-6,2.6914063-6,6s2.6914063,6,6,6s6-2.6914063,6-6   S15.3085938,6,12,6z M12,16c-2.2055664,0-4-1.7944336-4-4s1.7944336-4,4-4s4,1.7944336,4,4S14.2055664,16,12,16z M18,5   c-0.5512695,0-1,0.4487305-1,1s0.4487305,1,1,1s1-0.4487305,1-1S18.5512695,5,18,5z" fill="url(#SVGID_1_)"></path> <linearGradient id="SVGID_2_" gradientUnits="userSpaceOnUse" x1="0.5337821" x2="23.466217" y1="6.6532149" y2="17.3467846"><stop offset="0" style="stop-color: rgb(255, 255, 255); stop-opacity: 0.2;"></stop> <stop offset="1" style="stop-color: rgb(255, 255, 255); stop-opacity: 0;"></stop></linearGradient> <path d="M17.0219727,1H6.9780273C3.6816406,1,1,3.6816406,1,6.9780273v10.0439453   C1,20.3183594,3.6816406,23,6.9780273,23h10.0439453C20.3183594,23,23,20.3183594,23,17.0219727V6.9780273   C23,3.6816406,20.3183594,1,17.0219727,1z" fill="url(#SVGID_2_)"></path></g> <g></g> <g></g> <g></g> <g></g> <g></g> <g></g> <g></g> <g></g> <g></g> <g></g> <g></g> <g></g> <g></g> <g></g> <g></g></svg>