<svg width="24" height="24" viewBox="0 0 24 24" fill="none" xmlns="http://www.w3.org/2000/svg" class="sunbedSolo v-icon__component theme--light primary--text" style="font-size: 24px; height: 24px; width: 24px;"><rect x="7" y="2" width="10" height="20" fill="white" stroke="currentColor"></rect> <path d="M7 15H6V19H7" stroke="currentColor" fill="none"></path> <path d="M17 15H18V19H17" stroke="currentColor" fill="none"></path> <path d="M22.1972 12C20.5403 14.8698 16.8708 15.853 14.001 14.1961C11.1312 12.5393 10.148 8.86975 11.8048 5.99999C13.4617 3.13024 17.1312 2.14699 20.001 3.80384C22.8708 5.4607 23.854 9.13024 22.1972 12Z" fill="white"></path> <path d="M20.0035 3.80525L14.0035 14.1976M20.0035 14.1976L14.0035 3.8053M11.0035 9.00146H23.0035M22.1972 12C20.5403 14.8698 16.8708 15.853 14.001 14.1961C11.1312 12.5393 10.148 8.86975 11.8048 5.99999C13.4617 3.13024 17.1312 2.14699 20.001 3.80384C22.8708 5.4607 23.854 9.13024 22.1972 12Z" stroke="currentColor" fill="none"></path></svg>