<svg width="24" height="24" viewBox="0 0 24 24" fill="none" xmlns="http://www.w3.org/2000/svg" class="shower v-icon__component theme--light primary--text" style="font-size: 24px; height: 24px; width: 24px;"><path d="M1 20.4726V8.65685C1 5.09323 5.30857 3.30857 7.82843 5.82843L8.36203 6.36203" stroke="currentColor" fill="none"></path> <path d="M15.3555 6.44078L7.83601 12.7504M15.3555 6.44078C13.6131 4.36432 10.5174 4.09347 8.44092 5.83583C6.36446 7.57819 6.09365 10.6739 7.83601 12.7504M15.3555 6.44078L16.1442 7.38072C16.5798 7.89983 16.5121 8.67377 15.993 9.10936L10.3533 13.8416C9.8342 14.2772 9.06026 14.2095 8.62467 13.6904L7.83601 12.7504" stroke="currentColor" fill="none"></path> <path d="M12.5303 13.9957L15.2807 17.2735" stroke="currentColor" fill="none"></path> <path d="M14.4102 12.4183L15.4411 13.647" stroke="currentColor" fill="none"></path> <path d="M19.9313 18.9979L15.9904 14.3011" stroke="currentColor" fill="none"></path> <path d="M16.2899 10.8409L18.6532 13.663" stroke="currentColor" fill="none"></path> <path d="M22.472 18.2082L19.2241 14.3376" stroke="currentColor" fill="none"></path></svg>