<svg width="28" height="29" viewBox="0 0 28 29" fill="#FCEEED" xmlns="http://www.w3.org/2000/svg" class="umbrellaCheckmark v-icon__component theme--light secondary--text text--lighten-3" style="font-size: 28px; height: 28px; width: 28px;"><path d="M0 14C0 6.26801 6.26801 0 14 0C21.732 0 28 6.26801 28 14C28 21.732 21.732 28 14 28C6.26801 28 0 21.732 0 14Z" fill="#FCEEED"></path> <g clip-path="url(#clip0)"><path d="M21.181 18.5923C21.181 18.5923 17.7726 17.0748 13.5681 15.2028C9.36366 13.3309 5.95525 11.8133 5.95525 11.8133C7.82721 7.60887 12.7531 5.71799 16.9576 7.58994C21.1621 9.4619 23.053 14.3878 21.181 18.5923Z" fill="#FCEEED" stroke="#06133A"></path> <path d="M16.6134 16.5586C16.6134 16.5586 15.2501 15.9516 13.5683 15.2028C11.8865 14.454 10.5231 13.847 10.5231 13.847C12.3951 9.64256 15.276 6.84117 16.9577 7.58995C18.6395 8.33873 18.4854 12.3541 16.6134 16.5586Z" fill="#FCEEED" stroke="#06133A"></path> <path d="M13.5679 15.2028L10.1784 22.8157" fill="#FCEEED" stroke="#06133A"></path></g> <path d="M26.7514 19.6944C25 23 22.5 25.5 19.7251 26.7783C18.6683 25.8616 18 24.5088 18 23C18 20.2386 20.2386 18 23 18C24.4942 18 25.8352 18.6554 26.7514 19.6944Z" fill="#FCEEED"></path> <rect x="19" y="19" width="8" height="8" rx="4" fill="#06133A"></rect> <path d="M20.7326 22.7323L22.5004 24.5L25.25 21.75" stroke="currentColor" fill="#FCEEED"></path> <defs><clipPath id="clip0"><rect width="20" height="20" fill="white" transform="translate(8.5 2) rotate(24)"></rect></clipPath></defs></svg>