<?xml version="1.0" encoding="utf-8"?>
<!-- Generator: Adobe Illustrator 23.0.3, SVG Export Plug-In . SVG Version: 6.00 Build 0)  -->
<svg version="1.1" id="Calque_1" xmlns="http://www.w3.org/2000/svg" xmlns:xlink="http://www.w3.org/1999/xlink" x="0px" y="0px"
	 viewBox="0 0 200 200" style="enable-background:new 0 0 200 200;" xml:space="preserve">
<style type="text/css">
	.st0{fill:#FFFFFF;}
</style>
<g>
	<g>
		<g>
			<path class="st0" d="M168.4,31.6C149.5,12.8,124.7,3.3,100,3.3s-49.5,9.4-68.4,28.3c-37.8,37.8-37.8,99,0,136.7
				c18.9,18.9,43.6,28.3,68.4,28.3s49.5-9.4,68.4-28.3C206.1,130.6,206.1,69.4,168.4,31.6z M100,15.4c13.2,0,25.9,3.1,37.4,8.8
				l-18.6,18.6c-6.1-2-12.4-3.2-18.7-3.2c-5.8,0-11.5,1.1-17.1,2.7L64.1,23.5C75.2,18.3,87.4,15.4,100,15.4z M24.2,137.4
				c-5.7-11.5-8.8-24.2-8.8-37.4c0-12.6,2.8-24.8,8.1-35.9l18.9,18.9c-3.5,11.7-3.3,24.2,0.5,35.8L24.2,137.4z M100,184.6
				c-12.1,0-23.8-2.6-34.5-7.4l19-19c5.1,1.3,10.2,2.3,15.4,2.3c5.8,0,11.5-1.1,17.1-2.8l18.9,18.9
				C124.8,181.7,112.6,184.6,100,184.6z M134.2,134.2c-9.1,9.1-21.3,14.2-34.2,14.2s-25.1-5-34.2-14.2c-9.1-9.1-14.2-21.3-14.2-34.2
				s5-25.1,14.2-34.2C75,56.7,87.1,51.7,100,51.7c12.9,0,25.1,5,34.2,14.2c9.1,9.1,14.2,21.3,14.2,34.2S143.3,125.1,134.2,134.2z
				 M157.7,117.1c3.1-10.6,3.3-21.8,0.5-32.5l19-19c9.9,22.4,9.7,48.1-0.7,70.3L157.7,117.1z"/>
		</g>
	</g>
</g>
</svg>
