<?xml version="1.0" encoding="utf-8"?>
<!-- Generator: Adobe Illustrator 23.0.1, SVG Export Plug-In . SVG Version: 6.00 Build 0)  -->
<svg version="1.1" id="Calque_1" xmlns="http://www.w3.org/2000/svg" xmlns:xlink="http://www.w3.org/1999/xlink" x="0px" y="0px"
	 viewBox="0 0 200 200" style="enable-background:new 0 0 200 200;" xml:space="preserve">
<g>
	<path d="M28,113.3h142.6c0,0-3.2,16.3-10.9,16.3c-7.7,0-100.4,0-114,0C32.1,129.6,28,113.3,28,113.3z M59.8,109.6h37.7h27.1h46
		c0,0-15.4-27.2-36.3-35.4c-20.9-8.2-10,5.5-10,5.5l-1.4,1.6l-6.2-4.8h-8.8v3.6h7.6l5,3.9l-12.8,14.4c-18.5-1.8-45.5-6-52.5-15.9
		c-10.3-14.5-3.6,13.4-2.8,16.8H36.2L28,109.6h23.5L59.8,109.6z"/>
</g>
</svg>
