<svg width="230" height="32" viewBox="0 0 230 32" fill="none" xmlns="http://www.w3.org/2000/svg">
<path fill-rule="evenodd" clip-rule="evenodd" d="M223.055 12.0487C223.372 11.878 223.721 11.7147 224.102 11.5551C224.484 11.3968 224.884 11.2846 225.293 11.2212C225.708 11.1584 226.13 11.1479 226.548 11.19C226.977 11.2339 227.39 11.3751 227.755 11.6028C228.041 11.7702 228.29 11.9927 228.49 12.2572C228.689 12.5218 228.833 12.8232 228.915 13.144C229.006 13.4603 229.029 13.7921 228.982 14.1178C228.936 14.4435 228.821 14.7557 228.645 15.0339C228.482 15.3262 228.261 15.5824 227.996 15.787C227.732 15.9917 227.428 16.1406 227.104 16.2247C226.788 16.3156 226.456 16.3386 226.13 16.2921C225.804 16.2456 225.492 16.1307 225.214 15.955C224.921 15.7911 224.665 15.5683 224.463 15.3004C224.26 15.0326 224.116 14.7257 224.038 14.3991C223.958 14.1424 223.931 13.872 223.959 13.6046C223.99 13.3716 224.029 13.1606 224.071 12.9697C224.109 12.8024 224.136 12.6326 224.15 12.4615C224.154 12.384 224.14 12.3068 224.11 12.2353C224.079 12.1639 224.034 12.1001 223.976 12.0487C223.743 11.8542 223.434 11.8542 223.055 12.0487ZM222.26 26.1198C222.256 26.2251 222.273 26.3301 222.312 26.4282C222.35 26.5264 222.408 26.6157 222.482 26.6904C222.557 26.7648 222.647 26.823 222.745 26.8615C222.844 26.8999 222.949 26.9179 223.055 26.9143H216.414C216.52 26.9179 216.625 26.8999 216.724 26.8615C216.822 26.823 216.912 26.7648 216.987 26.6904C217.061 26.6157 217.119 26.5264 217.157 26.4282C217.195 26.3301 217.213 26.2251 217.209 26.1198V12.0487C217.214 11.9431 217.196 11.8377 217.158 11.7392C217.12 11.6407 217.061 11.5512 216.987 11.4765C216.912 11.4017 216.822 11.3434 216.724 11.3051C216.625 11.2668 216.52 11.2495 216.414 11.2542H219.972C220.82 11.2542 221.413 11.4658 221.752 11.889C222.091 12.3123 222.26 13.0321 222.26 14.0486V26.1198ZM200.103 19.065C200.094 18.0285 200.258 16.9978 200.589 16.0155C200.895 15.1018 201.381 14.2588 202.019 13.5367C202.658 12.8258 203.439 12.2565 204.312 11.8652C205.266 11.4412 206.301 11.2302 207.345 11.2469H207.505C206.635 11.3092 206.015 11.7753 205.646 12.645C205.277 13.5147 205.093 14.9758 205.096 17.0283V21.1255C205.096 23.178 205.279 24.6391 205.646 25.5088C206.013 26.3785 206.632 26.8458 207.505 26.9106H207.345C206.301 26.9267 205.266 26.715 204.312 26.2904C203.439 25.8975 202.659 25.3241 202.024 24.6079C201.387 23.879 200.899 23.0317 200.589 22.1144C200.258 21.1321 200.094 20.1014 200.103 19.065ZM208.266 26.8776C208.667 26.8351 209.049 26.6813 209.367 26.4336C209.623 26.2456 209.808 25.9766 209.892 25.6703C209.927 25.5414 209.93 25.4058 209.899 25.2756C209.869 25.1455 209.806 25.0251 209.717 24.9253C209.534 24.7235 209.363 24.5382 209.193 24.3749C208.949 24.1411 208.755 23.8597 208.624 23.5483C208.493 23.2368 208.428 22.9018 208.431 22.564C208.428 22.2346 208.493 21.9082 208.622 21.6049C208.75 21.3016 208.939 21.0279 209.178 20.8007C209.41 20.5603 209.689 20.37 209.998 20.2416C210.306 20.1131 210.638 20.0493 210.972 20.0539C211.635 20.0639 212.267 20.3316 212.736 20.8002C213.204 21.2689 213.471 21.9015 213.481 22.564C213.482 23.1078 213.346 23.6432 213.084 24.1199C212.806 24.6222 212.432 25.0649 211.983 25.4226C211.485 25.8232 210.928 26.1444 210.332 26.3749C209.669 26.6346 208.974 26.8037 208.266 26.8776ZM208.108 11.2817H208.171C209.162 11.3659 210.122 11.6699 210.982 12.1716C211.78 12.6407 212.477 13.2645 213.031 14.0064C213.444 14.5328 213.733 15.1465 213.873 15.8009C213.99 16.3458 213.984 16.9097 213.857 17.4522C213.749 17.9165 213.513 18.3408 213.174 18.676C213.018 18.8309 212.831 18.9529 212.627 19.0349C212.422 19.1168 212.204 19.157 211.983 19.153H208.171C208.617 19.153 209.007 18.876 209.347 18.3256C209.686 17.7751 209.855 16.9916 209.855 15.9752C209.856 15.4326 209.813 14.8909 209.728 14.355C209.652 13.8647 209.535 13.3817 209.378 12.911C209.253 12.5176 209.067 12.1462 208.828 11.8101C208.656 11.5576 208.404 11.3712 208.112 11.2817H208.108ZM189.254 7.47082V26.1161C189.249 26.2216 189.267 26.3269 189.305 26.4253C189.344 26.5237 189.402 26.6131 189.477 26.6877C189.551 26.7624 189.641 26.8208 189.739 26.8591C189.838 26.8975 189.943 26.915 190.048 26.9106H183.41C183.515 26.9145 183.62 26.8966 183.719 26.858C183.817 26.8194 183.906 26.761 183.98 26.6865C184.055 26.6119 184.113 26.5228 184.152 26.4247C184.19 26.3265 184.208 26.2215 184.204 26.1161V5.46905C184.209 5.36354 184.191 5.25827 184.153 5.15988C184.115 5.0615 184.056 4.97214 183.982 4.89747C183.907 4.8228 183.818 4.76444 183.719 4.72607C183.621 4.6877 183.516 4.67017 183.41 4.67458H186.968C187.814 4.67458 188.408 4.88741 188.746 5.30942C189.083 5.73143 189.254 6.45434 189.254 7.47082ZM191.764 12.2523C191.687 12.2951 191.613 12.3422 191.542 12.3936C191.61 12.3441 191.681 12.2964 191.753 12.2505L191.764 12.2523ZM191.753 12.2523C192.06 12.0529 192.382 11.8775 192.716 11.7276C193.153 11.5345 193.612 11.3959 194.083 11.3147C194.578 11.23 195.084 11.2412 195.575 11.3478C196.039 11.4429 196.477 11.6376 196.859 11.9184C197.241 12.2076 197.542 12.5906 197.732 13.0303C197.954 13.5622 198.031 14.1433 197.956 14.7147C197.912 15.3633 197.747 15.998 197.47 16.5861C197.2 17.1743 196.887 17.7421 196.534 18.2852C196.245 18.7357 195.932 19.1706 195.597 19.5879C195.311 19.9377 195.136 20.1549 195.072 20.2393C195.046 20.2984 195.025 20.3598 195.01 20.4227C195.001 20.4696 195.002 20.5177 195.013 20.5641C195.023 20.6105 195.044 20.6542 195.072 20.6924C195.263 21.0117 195.538 21.4618 195.898 22.0429L197.01 23.8373C197.391 24.4489 197.746 25.0159 198.074 25.5382C198.402 26.0556 198.624 26.4115 198.725 26.6024C198.792 26.7084 198.886 26.7941 198.998 26.8501C199.11 26.9061 199.235 26.9302 199.36 26.9198H194.558C194.188 26.9255 193.819 26.888 193.457 26.8079C193.321 26.7834 193.194 26.7258 193.085 26.64C192.977 26.5542 192.892 26.4429 192.837 26.3161C192.604 25.8703 192.357 25.3987 192.092 24.9015C191.828 24.4043 191.573 23.918 191.329 23.4336C191.085 22.9493 190.852 22.5162 190.63 22.0832C190.408 21.6502 190.223 21.2998 190.08 21.0044C190.002 20.8755 189.974 20.723 190.001 20.575C190.067 20.402 190.17 20.245 190.302 20.1145C190.514 19.8393 190.785 19.4631 191.113 18.9861C191.44 18.509 191.774 18.0008 192.112 17.4614C192.453 16.9219 192.758 16.3874 193.03 15.8577C193.271 15.4139 193.463 14.9451 193.602 14.4596C193.726 14.0095 193.748 13.5376 193.667 13.078C193.614 12.7655 193.457 12.4801 193.221 12.2688C193 12.0959 192.721 12.0161 192.443 12.0468C192.203 12.0645 191.97 12.1353 191.76 12.2542L191.753 12.2523ZM174.243 26.9106C174.965 26.8678 175.484 26.354 175.801 25.3694C176.118 24.3847 176.276 22.9713 176.276 21.1291V17.032C176.276 15.1678 176.107 13.7434 175.768 12.7587C175.429 11.7741 174.921 11.2713 174.243 11.2505C175.218 11.2513 176.181 11.4616 177.068 11.8671C177.954 12.2726 178.743 12.8639 179.381 13.6009C179.997 14.3258 180.47 15.1615 180.773 16.0632C181.105 17.0289 181.272 18.0438 181.265 19.065C181.273 20.0964 181.107 21.1218 180.773 22.0979C180.468 22.9999 179.993 23.8355 179.375 24.5602C178.737 25.2964 177.948 25.8871 177.061 26.2926C176.175 26.698 175.212 26.9088 174.238 26.9106H174.243ZM173.801 26.9106C172.827 26.9088 171.864 26.698 170.978 26.2926C170.091 25.8871 169.302 25.2964 168.664 24.5602C168.046 23.8355 167.571 22.9999 167.266 22.0979C166.933 21.1216 166.767 20.0964 166.774 19.065C166.768 18.0439 166.934 17.0291 167.266 16.0632C167.571 15.161 168.045 14.3254 168.664 13.6009C169.302 12.8639 170.09 12.2726 170.977 11.8671C171.863 11.4616 172.826 11.2513 173.801 11.2505C173.124 11.2713 172.615 11.7741 172.276 12.7587C171.938 13.7434 171.768 15.1678 171.768 17.032V21.1291C171.768 22.9713 171.927 24.3847 172.245 25.3694C172.563 26.354 173.082 26.8678 173.801 26.9106ZM157.299 26.9106C158.018 26.8678 158.537 26.354 158.855 25.3694C159.173 24.3847 159.332 22.9713 159.332 21.1291V17.032C159.332 15.1678 159.163 13.7434 158.824 12.7587C158.485 11.7741 157.977 11.2713 157.299 11.2505C158.274 11.2518 159.237 11.4623 160.123 11.8677C161.009 12.2732 161.798 12.8643 162.436 13.6009C163.054 14.3255 163.528 15.1612 163.833 16.0632C164.165 17.0288 164.332 18.0437 164.326 19.065C164.334 20.0965 164.167 21.1219 163.833 22.0979C163.524 23.0007 163.047 23.8363 162.425 24.5602C161.786 25.296 160.997 25.8865 160.111 26.2919C159.225 26.6973 158.262 26.9083 157.288 26.9106H157.299ZM156.853 26.9106C155.879 26.9083 154.916 26.6973 154.03 26.2919C153.144 25.8865 152.355 25.296 151.716 24.5602C151.099 23.835 150.625 22.9995 150.319 22.0979C149.985 21.1219 149.818 20.0965 149.826 19.065C149.82 18.0437 149.987 17.0288 150.319 16.0632C150.625 15.1615 151.099 14.3259 151.716 13.6009C152.354 12.8643 153.143 12.2732 154.029 11.8677C154.915 11.4623 155.878 11.2518 156.853 11.2505C156.175 11.2713 155.667 11.7741 155.328 12.7587C154.99 13.7434 154.82 15.1678 154.82 17.032V21.1291C154.82 22.9713 154.979 24.3847 155.297 25.3694C155.615 26.354 156.133 26.8678 156.851 26.9106H156.853ZM138.322 25.5455C138.54 25.7668 138.8 25.9443 139.085 26.0684C139.355 26.1867 139.647 26.2491 139.942 26.2519C140.789 26.2519 141.457 25.6801 141.944 24.5364C142.43 23.3927 142.663 21.5823 142.641 19.1053C142.636 18.046 142.545 16.9888 142.371 15.944C142.253 15.2019 142.045 14.4768 141.753 13.7844C141.556 13.3033 141.252 12.8738 140.863 12.5294C140.56 12.2686 140.181 12.1128 139.782 12.0854C139.55 12.0424 139.312 12.0531 139.085 12.1166C138.866 12.1832 138.653 12.2686 138.448 12.3716C138.921 12.1056 139.412 11.8721 139.916 11.6725C140.54 11.4276 141.205 11.3061 141.876 11.3147C142.676 11.3122 143.466 11.5009 144.178 11.8652C144.9 12.2383 145.527 12.7703 146.013 13.4211C146.562 14.1579 146.976 14.9859 147.237 15.8669C147.547 16.9186 147.696 18.0109 147.681 19.1072C147.738 20.2394 147.598 21.373 147.268 22.4575C146.99 23.371 146.531 24.2191 145.918 24.951C145.351 25.6188 144.632 26.1415 143.822 26.4758C142.993 26.813 142.1 26.9615 141.206 26.9106C140.635 26.8801 140.078 26.7281 139.571 26.4648C139.109 26.2227 138.686 25.9129 138.316 25.5455H138.322ZM138.068 7.47082V24.1144C138.068 25.1308 137.899 25.8507 137.56 26.2739C137.221 26.6972 136.628 26.9094 135.78 26.9106H132.217C132.323 26.9142 132.428 26.8963 132.527 26.8578C132.625 26.8193 132.715 26.7611 132.79 26.6868C132.864 26.612 132.922 26.5227 132.96 26.4246C132.998 26.3264 133.016 26.2214 133.012 26.1161V5.46905C133.016 5.36347 132.999 5.25807 132.961 5.15956C132.923 5.06105 132.864 4.97158 132.789 4.89685C132.715 4.82212 132.625 4.76377 132.527 4.7255C132.428 4.68723 132.323 4.66989 132.217 4.67458H135.775C136.623 4.67458 137.216 4.88619 137.555 5.30942C137.894 5.73265 138.063 6.45312 138.063 7.47082H138.068ZM115.188 12.2982C116.034 11.8631 116.938 11.554 117.873 11.3808C118.708 11.2094 119.571 11.2257 120.399 11.4285C121.148 11.6221 121.809 12.0647 122.273 12.6835C122.762 13.3184 123.007 14.218 123.007 15.3825V26.1198C123.002 26.2251 123.02 26.3301 123.058 26.4282C123.096 26.5264 123.154 26.6157 123.229 26.6904C123.304 26.7648 123.393 26.823 123.492 26.8615C123.59 26.8999 123.695 26.9179 123.801 26.9143H117.159C117.377 26.9198 117.588 26.8393 117.746 26.6904C117.825 26.6184 117.887 26.53 117.928 26.4315C117.97 26.3329 117.989 26.2266 117.985 26.1198V14.6816C118.007 14.1645 117.915 13.6488 117.715 13.1716C117.569 12.8425 117.338 12.5577 117.047 12.3459C116.786 12.1671 116.474 12.0782 116.157 12.0927C115.825 12.1034 115.497 12.1729 115.188 12.2982ZM108.836 26.9106C108.942 26.915 109.047 26.8975 109.146 26.8591C109.244 26.8208 109.333 26.7624 109.408 26.6877C109.483 26.6131 109.541 26.5237 109.579 26.4253C109.618 26.3269 109.635 26.2216 109.631 26.1161V5.46905C109.636 5.36347 109.618 5.25807 109.58 5.15956C109.542 5.06105 109.483 4.97158 109.409 4.89685C109.334 4.82212 109.244 4.76377 109.146 4.7255C109.047 4.68723 108.942 4.66989 108.836 4.67458H112.394C113.242 4.67458 113.834 4.88619 114.172 5.30942C114.51 5.73265 114.679 6.45312 114.68 7.47082V26.1161C114.676 26.2215 114.694 26.3265 114.733 26.4247C114.771 26.5228 114.83 26.6119 114.904 26.6865C114.979 26.761 115.068 26.8194 115.166 26.858C115.264 26.8966 115.369 26.9145 115.475 26.9106H108.836ZM93.3176 19.065C93.3085 18.0285 93.4728 16.9978 93.8039 16.0155C94.108 15.1012 94.5942 14.2579 95.2332 13.5367C95.8727 12.8257 96.654 12.2563 97.5267 11.8652C98.4809 11.4416 99.5158 11.2306 100.56 11.2469H100.719C99.8508 11.3092 99.2312 11.7753 98.8606 12.645C98.49 13.5147 98.3065 14.9758 98.3101 17.0283V21.1255C98.3101 23.178 98.4936 24.6391 98.8606 25.5088C99.2275 26.3785 99.8471 26.8458 100.719 26.9106H100.56C99.5156 26.9263 98.4807 26.7147 97.5267 26.2904C96.6543 25.8975 95.8751 25.324 95.2405 24.6079C94.6013 23.8801 94.113 23.0325 93.8039 22.1144C93.4731 21.1321 93.3087 20.1014 93.3176 19.065ZM101.481 26.8776C101.882 26.8345 102.263 26.6807 102.582 26.4336C102.838 26.2461 103.022 25.9768 103.104 25.6703C103.14 25.5414 103.143 25.4058 103.112 25.2756C103.082 25.1455 103.019 25.0251 102.93 24.9253C102.747 24.7235 102.576 24.5382 102.405 24.3749C102.162 24.1411 101.968 23.8597 101.837 23.5483C101.706 23.2368 101.64 22.9018 101.644 22.564C101.642 22.2346 101.707 21.9083 101.835 21.6051C101.963 21.3018 102.153 21.0281 102.391 20.8007C102.623 20.5603 102.902 20.37 103.211 20.2416C103.519 20.1131 103.851 20.0493 104.185 20.0539C104.848 20.0643 105.48 20.3321 105.949 20.8006C106.417 21.2691 106.685 21.9015 106.695 22.564C106.696 23.1079 106.559 23.6433 106.297 24.1199C106.019 24.6222 105.645 25.0649 105.196 25.4226C104.698 25.8229 104.141 26.1441 103.545 26.3749C102.882 26.6341 102.188 26.8032 101.481 26.8776ZM101.8 11.3239C101.695 11.3074 101.589 11.2946 101.481 11.2817C101.589 11.2916 101.696 11.3087 101.802 11.3331L101.8 11.3239ZM101.8 11.3239C102.398 11.4118 102.984 11.5682 103.547 11.79C104.142 12.0221 104.699 12.3432 105.198 12.7422C105.646 13.1006 106.02 13.5431 106.299 14.0449C106.558 14.5115 106.695 15.036 106.697 15.5697C106.703 15.9019 106.639 16.2316 106.51 16.5379C106.382 16.8443 106.191 17.1206 105.95 17.3494C105.721 17.584 105.446 17.77 105.143 17.8961C104.84 18.0222 104.515 18.0859 104.187 18.0834C103.854 18.0881 103.523 18.0255 103.215 17.8994C102.907 17.7733 102.627 17.5862 102.393 17.3494C102.152 17.1206 101.961 16.8443 101.832 16.5379C101.704 16.2316 101.64 15.9019 101.646 15.5697C101.645 15.237 101.712 14.9077 101.843 14.6019C101.974 14.2961 102.166 14.0204 102.407 13.7917C102.578 13.6211 102.752 13.4358 102.932 13.2413C103.021 13.1412 103.084 13.0205 103.114 12.89C103.144 12.7596 103.142 12.6237 103.106 12.4945C103.022 12.185 102.838 11.9118 102.583 11.7166C102.359 11.5298 102.093 11.4001 101.807 11.3386L101.8 11.3239ZM90.3783 15.5697V26.0849C90.3739 26.1904 90.3914 26.2956 90.4298 26.3939C90.4682 26.4922 90.5266 26.5814 90.6013 26.6559C90.676 26.7305 90.7654 26.7887 90.8637 26.8268C90.9621 26.865 91.0673 26.8823 91.1728 26.8776H87.6151C86.7466 26.8776 86.1485 26.666 85.8207 26.2427C85.4928 25.8195 85.3289 25.0997 85.3289 24.0832V14.9091C85.3403 14.0615 85.2653 13.215 85.1051 12.3826C84.9583 11.6744 84.6727 11.2988 84.2482 11.256C85.0554 11.2492 85.8592 11.3618 86.6335 11.59C87.3254 11.787 87.9801 12.097 88.571 12.5074C89.0992 12.8745 89.5479 13.3444 89.8902 13.889C90.2091 14.3915 90.3784 14.9745 90.3783 15.5697ZM83.1327 11.3147L83.3272 11.2909C83.2611 11.2872 83.1969 11.2964 83.1327 11.3147ZM83.1327 11.3147C82.7898 11.3608 82.4665 11.5012 82.1988 11.7202C81.9441 11.9154 81.7604 12.1887 81.6758 12.4982C81.6398 12.628 81.6378 12.7648 81.6699 12.8956C81.7021 13.0264 81.7673 13.1467 81.8593 13.245C82.0428 13.445 82.2263 13.6303 82.4006 13.7954C82.6301 14.0229 82.8133 14.2927 82.94 14.5899C83.0675 14.9018 83.13 15.2364 83.1235 15.5733C83.1326 15.9085 83.0744 16.2422 82.9524 16.5545C82.8303 16.8669 82.647 17.1516 82.4131 17.3919C82.1792 17.6322 81.8995 17.8232 81.5906 17.9536C81.2817 18.084 80.9497 18.1512 80.6144 18.1512C80.2791 18.1512 79.9471 18.084 79.6382 17.9536C79.3293 17.8232 79.0496 17.6322 78.8157 17.3919C78.5818 17.1516 78.3985 16.8669 78.2765 16.5545C78.1544 16.2422 78.0963 15.9085 78.1053 15.5733C78.1066 15.0398 78.243 14.5153 78.5016 14.0486C78.7802 13.5468 79.1542 13.1042 79.6025 12.7459C80.1015 12.3466 80.6583 12.0255 81.2538 11.7936C81.8582 11.5579 82.4892 11.397 83.1327 11.3147ZM85.0739 25.5859C84.1759 26.3386 83.0659 26.7932 81.8979 26.8868C81.259 26.9541 80.6132 26.9056 79.9915 26.7436C79.4245 26.5991 78.8976 26.3281 78.4503 25.951C78.0131 25.5754 77.6705 25.1021 77.4503 24.5694C77.2109 23.9643 77.1344 23.307 77.2283 22.663C77.2718 22.0856 77.4571 21.5279 77.7677 21.0392C78.0629 20.5968 78.4278 20.2052 78.8484 19.8796C79.2864 19.5427 79.767 19.265 80.2777 19.054C80.8076 18.8313 81.3483 18.6354 81.8979 18.4668C82.6192 18.2468 83.3202 17.9651 83.9932 17.6247C84.3861 17.4268 84.7498 17.1755 85.0739 16.8779C84.7689 17.2039 84.4395 17.5063 84.0886 17.7824C83.7194 18.0786 83.3889 18.4201 83.1052 18.7989C82.7764 19.2527 82.5242 19.7572 82.3584 20.2925C82.1365 21.0592 82.0362 21.856 82.0611 22.6539C82.0351 23.3091 82.1431 23.9628 82.3786 24.5749C82.5428 24.9881 82.813 25.3507 83.162 25.6262C83.4434 25.8408 83.7922 25.9476 84.1455 25.9272C84.4832 25.9066 84.8068 25.7844 85.0739 25.5767V25.5859ZM60.8839 19.065C60.8774 18.0282 61.0435 16.9977 61.3756 16.0155C61.6808 15.1013 62.1676 14.2582 62.8068 13.5367C63.4438 12.8261 64.2226 12.2567 65.0929 11.8652C66.047 11.4414 67.082 11.2304 68.1258 11.2469H68.2855C67.4182 11.3092 66.7987 11.7753 66.4268 12.645C66.055 13.5147 65.8715 14.9758 65.8764 17.0283V21.1255C65.8764 23.178 66.0599 24.6391 66.4268 25.5088C66.7938 26.3785 67.4133 26.8458 68.2855 26.9106H68.1258C67.0818 26.9265 66.0469 26.7149 65.0929 26.2904C64.2203 25.8979 63.441 25.3244 62.8068 24.6079C62.1703 23.879 61.6839 23.0317 61.3756 22.1144C61.0439 21.1322 60.8777 20.1017 60.8839 19.065ZM69.0469 26.8776C69.4479 26.8345 69.8291 26.6807 70.1478 26.4336C70.4034 26.2456 70.5877 25.9765 70.6707 25.6703C70.705 25.5407 70.7062 25.4045 70.6741 25.2744C70.642 25.1442 70.5778 25.0242 70.4872 24.9253C70.3037 24.7235 70.1331 24.5382 69.9625 24.3749C69.7186 24.1411 69.5252 23.8597 69.3942 23.5483C69.2633 23.2368 69.1975 22.9018 69.201 22.564C69.1986 22.2346 69.2636 21.9083 69.392 21.6051C69.5204 21.3018 69.7096 21.0281 69.9478 20.8007C70.1801 20.5603 70.4591 20.37 70.7677 20.2416C71.0763 20.1131 71.408 20.0493 71.7422 20.0539C72.4047 20.0643 73.0371 20.3321 73.5056 20.8006C73.974 21.2691 74.2418 21.9015 74.2522 22.564C74.2534 23.1079 74.1164 23.6433 73.8541 24.1199C73.5762 24.6222 73.2022 25.0649 72.7532 25.4226C72.2549 25.8229 71.698 26.1441 71.1019 26.3749C70.4424 26.6333 69.7513 26.8024 69.0469 26.8776ZM68.8891 11.2817H68.9515C69.9434 11.3662 70.9042 11.6702 71.7642 12.1716C72.5618 12.6412 73.2579 13.265 73.8119 14.0064C74.2259 14.5324 74.514 15.1462 74.6541 15.8009C74.7714 16.3457 74.7658 16.9098 74.6375 17.4522C74.5303 17.9165 74.2937 18.3408 73.955 18.676C73.7984 18.8309 73.6123 18.9529 73.4078 19.0349C73.2033 19.1168 72.9845 19.157 72.7642 19.153H68.9515C69.3974 19.153 69.7882 18.876 70.1276 18.3256C70.467 17.7751 70.6358 16.9916 70.6358 15.9752C70.6364 15.4326 70.5941 14.8909 70.5092 14.355C70.434 13.8646 70.3167 13.3814 70.1588 12.911C70.0338 12.5176 69.848 12.1462 69.6084 11.8101C69.4361 11.557 69.1822 11.3705 68.8891 11.2817ZM42.0625 26.9106C42.1681 26.9142 42.2734 26.8963 42.3718 26.8578C42.4703 26.8193 42.5598 26.7611 42.635 26.6868C42.7088 26.6117 42.7666 26.5224 42.8048 26.4243C42.8429 26.3262 42.8607 26.2213 42.857 26.1161V5.46905C42.861 5.36298 42.8434 5.25719 42.8053 5.15814C42.7671 5.05908 42.7091 4.96884 42.635 4.89292C42.5592 4.81985 42.4694 4.76284 42.371 4.72532C42.2726 4.6878 42.1677 4.67054 42.0625 4.67458H48.7008C48.5953 4.67017 48.49 4.6877 48.3916 4.72607C48.2933 4.76444 48.2039 4.8228 48.1292 4.89747C48.0546 4.97214 47.9962 5.0615 47.9578 5.15988C47.9195 5.25827 47.9019 5.36354 47.9063 5.46905V26.1161C47.9025 26.2215 47.9204 26.3265 47.959 26.4247C47.9975 26.5228 48.0559 26.6119 48.1305 26.6865C48.205 26.761 48.2941 26.8194 48.3923 26.858C48.4904 26.8966 48.5954 26.9145 48.7008 26.9106H42.0625ZM50.3852 15.0944C50.6784 15.0072 50.9456 14.849 51.1631 14.6339C51.465 14.3404 51.7134 13.9964 51.897 13.6174C52.1407 13.1163 52.3254 12.5887 52.4475 12.045C52.6038 11.3571 52.6783 10.6532 52.6695 9.94781C52.6795 9.18936 52.5994 8.43242 52.431 7.69284C52.303 7.1162 52.0949 6.56035 51.8126 6.04151C51.6046 5.65325 51.3243 5.30825 50.987 5.02503C50.7504 4.81631 50.4506 4.69292 50.1356 4.67458H52.1007C52.7479 4.67285 53.3875 4.81381 53.974 5.08741C54.5549 5.35395 55.0741 5.73819 55.4987 6.21581C56.3055 7.15816 56.79 8.33369 56.8814 9.57084C56.9728 10.808 56.6665 12.042 56.007 13.0927C55.4717 13.9502 54.7097 14.643 53.8052 15.0944C54.4545 15.1944 55.0778 15.4207 55.64 15.7605C56.2056 16.1002 56.7033 16.5419 57.1079 17.0632C57.5274 17.6039 57.8547 18.2102 58.0766 18.8576C58.3119 19.5367 58.4304 20.2508 58.4271 20.9695C58.4369 22.5209 57.8707 24.0207 56.8381 25.1786C56.3577 25.7135 55.7742 26.146 55.1226 26.4501C54.4651 26.7575 53.7475 26.9148 53.0218 26.9106H50.5429C50.8938 26.8895 51.2284 26.7557 51.497 26.529C51.8783 26.221 52.1908 25.8367 52.4144 25.4006C52.7229 24.8145 52.9525 24.1901 53.097 23.5437C53.2875 22.7011 53.3781 21.8389 53.3667 20.975C53.3824 20.1119 53.283 19.2505 53.0713 18.4136C52.9074 17.7708 52.6562 17.1534 52.3245 16.5788C52.0769 16.1488 51.7478 15.7711 51.3558 15.4669C51.0792 15.2443 50.7397 15.114 50.3852 15.0944Z" fill="#06133A"/>
<path fill-rule="evenodd" clip-rule="evenodd" d="M18.659 14.329C19.0402 13.9789 19.3908 13.4915 19.7109 12.8668C20.065 12.1464 20.3334 11.3869 20.5107 10.604C20.7353 9.61449 20.8425 8.60193 20.8302 7.58729C20.8302 6.36673 20.7159 5.28487 20.4874 4.34171C20.2588 3.39854 19.9609 2.60657 19.5936 1.96577C19.2285 1.32608 18.8338 0.837304 18.4094 0.49943C17.9849 0.161556 17.5724 -0.00488414 17.1719 0.000109075H20.0014C20.9329 -0.00281627 21.8537 0.200082 22.6977 0.594301C23.5334 0.977514 24.2804 1.53011 24.8914 2.21709C26.1899 3.70465 26.9045 5.61276 26.9028 7.58729C26.9028 9.29442 26.4762 10.8026 25.6229 12.112C24.7696 13.4213 23.7185 14.3814 22.4697 14.9922C23.3996 15.1387 24.2922 15.4646 25.0978 15.9518C25.9079 16.4417 26.6206 17.0771 27.1999 17.8259C27.803 18.6035 28.2739 19.4751 28.5939 20.4057C28.9309 21.3833 29.0997 22.4109 29.0932 23.4449C29.1106 25.677 28.2986 27.836 26.8146 29.5033C26.1239 30.274 25.2843 30.8968 24.3463 31.3342C23.4025 31.777 22.3721 32.0044 21.3296 31.9999H17.7652C18.1919 31.9999 18.649 31.8171 19.1367 31.4515C19.6244 31.0859 20.0663 30.545 20.4624 29.8287C20.8585 29.1119 21.1861 28.2206 21.4452 27.1549C21.7043 26.0891 21.8339 24.8549 21.8339 23.4524C21.8339 22.051 21.6891 20.8246 21.3995 19.7732C21.1099 18.7219 20.7512 17.8453 20.3234 17.1435C19.8968 16.4428 19.4321 15.9096 18.9295 15.544C18.4268 15.1784 17.9622 14.9956 17.5355 14.9956C17.9023 14.9018 18.2768 14.6796 18.659 14.329Z" fill="#06133A"/>
<path fill-rule="evenodd" clip-rule="evenodd" d="M14.2797 0.103516L14.2323 0.108509C14.1235 0.12276 14.023 0.173794 13.9473 0.253127C13.8716 0.332459 13.8253 0.435311 13.8162 0.544583L13.0472 8.65856L12.3565 0.885786C12.352 0.831288 12.3357 0.778421 12.3087 0.730885C12.2817 0.683349 12.2446 0.642291 12.2 0.610584C12.1555 0.578877 12.1046 0.557286 12.0508 0.547323C11.997 0.537361 11.9417 0.539265 11.8888 0.552905C11.5004 0.656098 11.1171 0.773716 10.7387 0.905759C10.6502 0.937303 10.573 0.994084 10.5165 1.06908C10.46 1.14407 10.4267 1.23398 10.4208 1.32769L10.3559 19.6037L8.76054 2.53271C8.75506 2.45113 8.72895 2.37228 8.68465 2.30355C8.64035 2.23482 8.57932 2.17847 8.50728 2.13979C8.43524 2.10111 8.35456 2.08136 8.2728 2.0824C8.19104 2.08344 8.11088 2.10524 8.03985 2.14574C6.0515 3.28976 4.3317 4.84701 2.99652 6.7124C1.66134 8.57778 0.741865 10.7079 0.300143 12.9589C-0.141579 15.21 -0.0952657 17.5296 0.435958 19.7612C0.967181 21.9928 1.97095 24.0845 3.37952 25.8951C3.41955 25.9456 3.474 25.9827 3.53562 26.0014C3.59724 26.0202 3.66311 26.0197 3.72447 26.0001C3.78582 25.9805 3.83975 25.9427 3.87907 25.8917C3.9184 25.8407 3.94125 25.7789 3.94459 25.7146L4.90495 14.7411L5.79623 27.5063C5.80917 27.8034 5.88828 28.0938 6.02779 28.3564C6.16731 28.619 6.3637 28.8472 6.60264 29.0242C7.75734 29.8649 9.01933 30.5472 10.355 31.0531C10.4305 31.0818 10.5117 31.0925 10.5921 31.0844C10.6725 31.0762 10.7498 31.0494 10.818 31.0061C10.8862 30.9628 10.9433 30.9042 10.9849 30.8349C11.0265 30.7656 11.0513 30.6876 11.0574 30.6071L11.7781 21.6942L12.5079 31.3186C12.5161 31.4308 12.5607 31.5373 12.6349 31.6218C12.7091 31.7064 12.8089 31.7644 12.919 31.7871C13.3662 31.8759 13.8198 31.9461 14.2797 31.9977V0.103516Z" fill="#E55446"/>
</svg>
