<svg version="1.0" xmlns="http://www.w3.org/2000/svg"
 width="200.000000pt" height="200.000000pt" viewBox="0 0 200.000000 200.000000"
 preserveAspectRatio="xMidYMid meet">

<g transform="translate(0.000000,200.000000) scale(0.100000,-0.100000)"
fill="#000000" stroke="none">
<path d="M1230 1968 c49 -33 95 -106 127 -201 24 -75 27 -96 27 -237 1 -144
-1 -161 -28 -242 -30 -94 -74 -165 -125 -202 -32 -24 -32 -24 -8 -30 39 -10
112 -81 144 -143 64 -119 78 -189 78 -378 0 -132 -4 -184 -18 -235 -36 -130
-96 -231 -162 -271 l-30 -19 120 0 c194 0 294 38 399 150 97 105 146 232 146
380 0 239 -151 454 -359 510 -24 6 -40 15 -35 19 5 4 33 25 62 45 60 44 135
143 164 219 26 67 36 227 18 305 -30 135 -124 259 -239 315 -61 29 -75 32
-191 35 l-125 4 35 -24z"/>
<path d="M930 1074 c-25 -18 -51 -33 -59 -33 -8 -1 -38 -17 -67 -37 l-54 -35
0 -95 c0 -51 -4 -94 -9 -94 -14 0 -21 27 -22 83 -1 86 -6 92 -59 57 -25 -17
-49 -30 -53 -30 -4 0 -33 -16 -63 -35 -30 -19 -60 -35 -68 -35 -7 0 -21 -9
-31 -19 -16 -19 -16 -32 0 -278 11 -168 22 -267 31 -285 19 -36 66 -71 169
-124 88 -45 122 -54 130 -31 2 6 11 113 20 237 18 260 24 320 34 320 3 0 16
-135 27 -300 12 -165 24 -303 27 -307 7 -6 90 -23 95 -19 1 2 1 248 0 548 l-3
545 -45 -33z"/>
<path d="M330 736 c-8 -8 -43 -28 -76 -45 -92 -46 -92 -45 -39 -148 51 -100
96 -160 112 -150 6 4 13 53 17 109 3 57 9 136 12 176 6 73 1 84 -26 58z"/>
</g>
</svg>