<?xml version="1.0" encoding="utf-8"?>
<!-- Generator: Adobe Illustrator 23.0.1, SVG Export Plug-In . SVG Version: 6.00 Build 0)  -->
<svg version="1.1" id="Calque_1" xmlns="http://www.w3.org/2000/svg" xmlns:xlink="http://www.w3.org/1999/xlink" x="0px" y="0px"
	 viewBox="0 0 200 200" style="enable-background:new 0 0 200 200;" xml:space="preserve">
<style type="text/css">
	.st0{fill:#FFFFFF;}
</style>
<path class="st0" d="M118.7,92.3l-13.3,33.4c0.9,0,1.8,0.1,2.6,0.1c0.8,0.1,1.6,0.1,2.4,0.2l12.7-32c0,0-1.9-0.9-2.1-1
	C120.3,92.8,119.5,92.5,118.7,92.3z"/>
<ellipse class="st0" cx="62.1" cy="66.4" rx="7.6" ry="7.6"/>
<path class="st0" d="M131.7,96.2L131.7,96.2c0.5-1.6,1-3.2,1.4-4.8c1.8-7.4,2.3-15.3,0.3-22.7c-0.4-1.6-0.9-2.7-1.2-3.6
	c-1.3,0.6-2.6,1.3-3.9,2c-2.7,1.7-5.1,3.8-7.3,6.1c-0.6,0.7-1.7,0.7-2.4,0.1c-0.7-0.6-0.7-1.7-0.1-2.4c0.8-0.8,1.6-1.6,2.5-2.4
	c2.2-2,4.6-3.8,7.2-5.2c0,0,0,0,0.1,0c-4.8-1.3-9.7-1.5-14.5-0.6c-5,0.9-9.9,3-14.8,6.2c-4.8,3.2-8.6,6.9-10.8,9.5
	c3.4,0,6.8,0.6,10.1,1.9c3.7,1.5,7,3.7,9.6,6.5l0,0c0.4-1,0.9-1.9,1.4-2.9c1.4-2.6,2.9-5.1,4.6-7.5c0.5-0.7,1.6-0.9,2.4-0.4
	s0.9,1.6,0.4,2.4c-2.2,3-4,6.2-5.6,9.5c0,0,0,0.1-0.1,0.1c4.2-0.2,8.3,0.6,12.1,2.3c0,0,0.1,0,0.1,0.1
	C126.5,91.8,129.4,93.8,131.7,96.2z"/>
<path class="st0" d="M100.5,3.9C47.2,3.9,4,47.1,4,100.5S47.2,197,100.5,197s96.5-43.2,96.5-96.5S153.9,3.9,100.5,3.9z M79.7,64.7
	c0.9,0,1.7,0.8,1.7,1.7c0,0.9-0.8,1.7-1.7,1.7h-3.4c-0.9,0-1.7-0.8-1.7-1.7c0-0.9,0.8-1.7,1.7-1.7H79.7z M75.8,80.1
	c-0.3,0.3-0.8,0.5-1.2,0.5c-0.4,0-0.9-0.2-1.2-0.5L71,77.7c-0.7-0.7-0.7-1.7,0-2.4c0.7-0.7,1.7-0.7,2.4,0l2.4,2.4
	C76.4,78.3,76.4,79.4,75.8,80.1z M71,55.2l2.4-2.4c0.7-0.7,1.7-0.7,2.4,0c0.7,0.7,0.7,1.7,0,2.4l-2.4,2.4c-0.3,0.3-0.8,0.5-1.2,0.5
	c-0.4,0-0.9-0.2-1.2-0.5C70.3,56.9,70.3,55.8,71,55.2z M60.4,48.8c0-0.9,0.8-1.7,1.7-1.7s1.7,0.8,1.7,1.7v3.4c0,0.9-0.8,1.7-1.7,1.7
	s-1.7-0.8-1.7-1.7V48.8z M62.1,55.5c6,0,11,4.9,11,11s-4.9,11-11,11c-6,0-11-4.9-11-11C51.2,60.4,56.1,55.5,62.1,55.5z M63.8,80.6
	V84c0,0.9-0.8,1.7-1.7,1.7s-1.7-0.8-1.7-1.7v-3.4c0-0.9,0.8-1.7,1.7-1.7C63.1,78.9,63.8,79.7,63.8,80.6z M53.3,77.7l-2.4,2.4
	c-0.3,0.3-0.8,0.5-1.2,0.5s-0.9-0.2-1.2-0.5c-0.7-0.7-0.7-1.7,0-2.4l2.4-2.4c0.7-0.7,1.7-0.7,2.4,0C53.9,75.9,53.9,77,53.3,77.7z
	 M48.4,52.7c0.7-0.7,1.7-0.7,2.4,0l2.4,2.4c0.7,0.7,0.7,1.7,0,2.4C52.9,57.8,52.4,58,52,58s-0.9-0.2-1.2-0.5l-2.4-2.4
	C47.8,54.5,47.8,53.4,48.4,52.7z M44.5,64.7h3.4c0.9,0,1.7,0.8,1.7,1.7c0,0.9-0.8,1.7-1.7,1.7h-3.4c-0.9,0-1.7-0.8-1.7-1.7
	S43.5,64.7,44.5,64.7z M130.6,130c8.1,2.7,14,6.4,17.2,10.7c3.4-0.2,6.8,0.7,9.8,2.7c0.8,0.5,1,1.6,0.5,2.4c-0.5,0.8-1.6,1-2.4,0.5
	c-2.5-1.7-5.5-2.4-8.3-2.1c-0.1,0-0.2,0-0.3,0c-1.9,0.3-3.7,0.9-5.4,2.1c-2.7,1.8-5.8,2.8-8.9,2.8c-3.1,0-6.2-0.9-8.9-2.8
	c-4.3-2.9-9.8-2.9-14.1,0c-5.4,3.7-12.4,3.7-17.9,0c-4.3-2.9-9.8-2.9-14.1,0c-5.4,3.7-12.4,3.7-17.9,0c-1.7-1.1-3.5-1.8-5.4-2.1
	c-0.1,0-0.2,0-0.3,0c-2.9-0.3-5.8,0.4-8.4,2.1c-0.8,0.5-1.8,0.3-2.4-0.5c-0.5-0.8-0.3-1.8,0.5-2.4c3-2,6.4-2.9,9.8-2.7
	c3.1-4.3,9-8,17.1-10.7c0.9-0.3,1.9,0.2,2.2,1.1c0.3,0.9-0.2,1.9-1.1,2.2c-6.5,2.2-11.5,5-14.4,8.2c1.5,0.5,2.9,1.1,4.2,2
	c4.3,2.9,9.8,2.9,14,0c5.4-3.7,12.4-3.7,17.9,0c4.3,2.9,9.8,2.9,14,0c5.4-3.7,12.4-3.7,17.9,0c4.3,2.9,9.8,2.9,14,0
	c1.3-0.9,2.8-1.6,4.2-2c-2.9-3.2-7.9-6-14.4-8.2c-5.4-1.8-11.6-3.1-18.1-3.7l0,0c-3.5-0.4-7.1-0.5-10.6-0.5
	c-7.5,0-14.9,0.8-21.5,2.2c-0.9,0.2-1.8-0.4-2-1.3c-0.2-0.9,0.4-1.8,1.3-2c6.9-1.5,14.4-2.3,22.2-2.3c0.3,0,0.7,0,1,0l13.6-34.1
	c-2.2-0.3-4.5-0.3-6.6,0.1c-0.8,0.2-1.5-0.2-2-0.8c-2.4-3.3-5.8-5.8-9.8-7.4c-4.1-1.6-8.4-2.1-12.4-1.3c-0.7,0.1-1.4-0.2-1.7-0.8
	c-0.4-0.6-0.4-1.3,0-1.9C83,79.2,88.2,72,97,66.1c11.8-7.9,24.4-9.4,36.6-4.6c8.8,3.5,15.4,9.6,19.7,18c0.4,0.8,0.1,1.9-0.8,2.3
	c-0.8,0.4-1.9,0.1-2.3-0.8c-3.2-6.3-7.9-11.2-14-14.5l0,0c0.7,2.2,1.2,4.4,1.5,6.6c0.5,3.9,0.4,7.8,0,11.7
	c-0.5,4.2-1.5,8.4-2.8,12.5c0,0.1-0.1,0.2-0.1,0.3c3.8-0.3,7.7,0.4,11.5,1.9c3.3,1.3,6.2,3.2,8.7,5.5c0.1-4-0.1-10.6-2.1-17.4
	c-0.3-0.9,0.2-1.8,1.1-2.1c0.9-0.3,1.8,0.2,2.1,1.1c3.5,11.6,2,22.3,2,22.8c-0.1,0.7-0.6,1.2-1.3,1.4c-0.1,0-0.3,0.1-0.4,0.1
	c-0.5,0-1-0.3-1.4-0.7c-2.4-3.3-5.9-5.9-9.9-7.6c-4-1.6-8.3-2.1-12.3-1.4c-0.7,0.2-1.4-0.2-1.8-0.7c-1.3-1.8-2.9-3.4-4.7-4.7
	l-12.2,30.5C119.9,127.1,125.5,128.3,130.6,130z"/>
</svg>
