<?xml version="1.0" encoding="utf-8"?>
<!-- Generator: Adobe Illustrator 23.0.1, SVG Export Plug-In . SVG Version: 6.00 Build 0)  -->
<svg version="1.1" id="Calque_1" xmlns="http://www.w3.org/2000/svg" xmlns:xlink="http://www.w3.org/1999/xlink" x="0px" y="0px"
	 viewBox="0 0 200 200" style="enable-background:new 0 0 200 200;" xml:space="preserve">
<style type="text/css">
	.st0{fill:#FFFFFF;stroke:#FFFFFF;stroke-miterlimit:10;}
	.st1{fill:#FFFFFF;}
</style>
<path class="st0" d="M100,35.6c-35.1,0-63.5,28.4-63.5,63.5S65,162.7,100,162.7c35.1,0,63.5-28.5,63.5-63.5
	C163.6,64.1,135.1,35.6,100,35.6z M84,56.7c8.5-3.2,17.8-3.8,26.7-1.6c1.2,0.3,2,1.5,1.7,2.7s-1.5,2-2.7,1.7
	c-8-1.9-16.4-1.4-24.1,1.5c-0.3,0.1-0.5,0.1-0.8,0.1l0,0l0,0l0,0c-0.9,0-1.8-0.6-2.1-1.5C82.3,58.5,82.9,57.2,84,56.7z M88.7,67.4
	v18.2c0,1.3-1,2.3-2.3,2.3s-2.3-1-2.3-2.3V67.4c0-1.3,1-2.3,2.3-2.3S88.7,66.2,88.7,67.4z M77.4,67.4c0-1.3,1-2.3,2.3-2.3
	s2.3,1,2.3,2.3v18.2c0,1.3-1,2.3-2.3,2.3s-2.3-1-2.3-2.3V67.4z M71.1,131.2c-0.9,0.9-2.3,0.9-3.2,0c-15.7-15.8-17.7-40.7-4.6-58.7
	c0,0,0,0,0-0.1c0.8-1,2.2-1.2,3.2-0.5c1,0.8,1.2,2.2,0.5,3.2c-5.1,7-7.8,15.4-7.8,24c0,10.8,4.3,21.2,11.9,28.8
	C72,128.9,72,130.3,71.1,131.2z M90.7,135c-0.2,4.2-3.8,7.5-8,7.3s-7.5-3.8-7.3-8l1.9-38.7l-6.1-6.1c-0.4-0.4-0.7-1-0.7-1.6V67.4
	c0-1.3,1-2.3,2.3-2.3s2.3,1,2.3,2.3v19.5l6.1,6.1c0.5,0.5,0.7,1.1,0.7,1.7l-2,39.7c0,0.9,0.3,1.7,0.9,2.3l0,0c1.3,1.2,3.3,1.2,4.5,0
	c0.6-0.6,0.9-1.5,0.9-2.3l-2-39.7c0-0.6,0.2-1.3,0.7-1.7l6.1-6.1V67.4c0-1.3,1-2.3,2.3-2.3s2.3,1,2.3,2.3v20.4
	c0,0.6-0.2,1.2-0.7,1.6l-6.1,6.1l1.9,38.7C90.7,134.5,90.7,134.7,90.7,135z M105.4,144.3c-3.5,0.4-7.1,0.4-10.7,0
	c-1.2-0.1-2.1-1.3-2-2.5s1.3-2.1,2.5-2c3.2,0.4,6.4,0.4,9.6,0l0,0h0.1c1.2-0.1,2.4,0.8,2.5,2S106.6,144.1,105.4,144.3z M124.7,134.3
	c0.2,2-0.5,4-1.8,5.4c-0.2,0.2-0.3,0.3-0.5,0.5c-3.2,3-8.2,2.7-11.2-0.5c-1.4-1.5-2-3.6-1.8-5.6l1.6-36.5c-3.2-1.7-5.4-4.7-6-8.2
	c-0.7-4.2-0.5-8.4,0.8-12.5l1.5-4.8c1-3.1,3.4-5.5,6.5-6.5c5.4-1.9,11.4,1.1,13.2,6.5l1.5,4.8c1.2,4,1.5,8.3,0.8,12.5
	c-0.7,3.5-2.9,6.5-6,8.2L124.7,134.3z M132.1,131.3c-0.9,0.9-2.3,0.9-3.2,0s-0.9-2.3,0-3.2c15-15,16.1-39,2.4-55.2
	c-0.8-1-0.7-2.4,0.3-3.2l0,0c1-0.8,2.4-0.7,3.2,0.3C150,88,148.8,114.7,132.1,131.3z"/>
<path class="st0" d="M122.6,73.5c-0.6-1.6-1.9-2.9-3.5-3.5c-3-1.1-6.4,0.4-7.6,3.5l-1.5,4.8c-1,3.4-1.2,6.9-0.6,10.4
	c0.5,2.5,2.3,4.6,4.7,5.4c0.9,0.3,1.5,1.2,1.5,2.2l-1.7,38.2c-0.1,0.8,0.1,1.6,0.7,2.2c1.4,1.4,3.6,1.4,4.9,0
	c0.5-0.6,0.8-1.3,0.7-2.1l-1.7-38.3c0-1,0.5-1.9,1.5-2.2c2.4-0.8,4.2-2.9,4.7-5.4c0.6-3.5,0.4-7-0.6-10.4L122.6,73.5z"/>
<path class="st0" d="M100,2.9c-53.6,0-97,43.4-97,97s43.4,97,97,97s97-43.4,97-97S153.6,2.9,100,2.9z M100,167.3
	c-37.6,0-68.1-30.5-68.1-68.1S62.5,31.1,100,31.1c37.6,0,68,30.5,68.1,68.1C168.1,136.8,137.6,167.3,100,167.3z"/>
</svg>
