<?xml version="1.0" encoding="utf-8"?>
<!-- Generator: Adobe Illustrator 23.0.1, SVG Export Plug-In . SVG Version: 6.00 Build 0)  -->
<svg version="1.1" id="Calque_1" xmlns="http://www.w3.org/2000/svg" xmlns:xlink="http://www.w3.org/1999/xlink" x="0px" y="0px"
	 viewBox="0 0 200 200" style="enable-background:new 0 0 200 200;" xml:space="preserve">
<g>
	<g>
		<path d="M100,4C47,4,4,47,4,100s43,96,96,96s96-43,96-96S153,4,100,4z M30.1,136.2c0-30,26.3-30,32.2-37.8l0.7-3.6
			c-8.2-4.2-14-14.2-14-25.9c0-15.5,10.1-28,22.5-28c9.8,0,18.1,7.8,21.1,18.6C80.2,63.4,71,76.9,71,92.9c0,11,4.3,21.2,11.5,27.6
			c-1.1,0.6-2.4,1.2-3.5,1.7c-5.8,2.7-13.7,6.5-19.5,14L30.1,136.2L30.1,136.2z M100.3,160.2L100.3,160.2h-0.6h-41
			c0-30,26.3-30,32.2-37.8l0.7-3.6c-8.2-4.2-14-14.2-14-25.9c0-15.5,10.1-28,22.5-28s22.5,12.5,22.5,28c0,11.6-5.7,21.6-13.8,25.8
			l0.8,4.1c6.4,7.5,31.9,7.9,31.9,37.4H100.3L100.3,160.2z M140.6,136.2L140.6,136.2L140.6,136.2c-5.8-7.5-13.7-11.3-19.5-14
			c-1.1-0.5-2.4-1.1-3.5-1.7c7.1-6.4,11.5-16.6,11.5-27.6c0-16-9.2-29.5-21.6-33.4c3.1-10.9,11.4-18.6,21.1-18.6
			c12.4,0,22.5,12.5,22.5,28c0,11.6-5.7,21.6-13.8,25.8l0.8,4.1c6.4,7.5,31.9,7.9,31.9,37.4H140.6L140.6,136.2z"/>
	</g>
</g>
</svg>
