<?xml version="1.0" encoding="utf-8"?>
<!-- Generator: Adobe Illustrator 23.0.1, SVG Export Plug-In . SVG Version: 6.00 Build 0)  -->
<svg version="1.1" id="Calque_1" xmlns="http://www.w3.org/2000/svg" xmlns:xlink="http://www.w3.org/1999/xlink" x="0px" y="0px"
	 viewBox="0 0 200 200" style="enable-background:new 0 0 200 200;" xml:space="preserve">
<g>
	<g>
		<path d="M99.5,2C45.1,2,1,46.1,1,100.5S45.1,199,99.5,199s98.5-44.1,98.5-98.5S153.9,2,99.5,2z M146.3,72.9l-9.4,9.4l-19-19
			l-7.2,7.2l19,19L83,136.2l-19-19l-7.2,7.2l19,19l-4.7,4.7L71,148c-0.5,0.8-1.4,1.5-2.4,1.7l-17.8,4c-0.3,0.1-0.5,0.1-0.8,0.1
			c-1,0-1.9-0.4-2.6-1.1c-0.9-0.9-1.3-2.2-1-3.4l4-17.8c0.2-1,0.8-1.8,1.7-2.4L52,129l75.2-75.2c1.1-1.1,2.9-1.1,4,0l15.1,15
			C147.4,70,147.4,71.8,146.3,72.9z"/>
	</g>
</g>
</svg>
