<svg width="138" height="138" viewBox="0 0 138 138" fill="none" xmlns="http://www.w3.org/2000/svg" class="lifeBuoyThin v-icon__component theme--light" style="font-size:133px;height:133px;width:133px;"><path fill-rule="evenodd" clip-rule="evenodd" d="M26.1569 120.068C54.3613 143.734 96.4107 140.056 120.077 111.851C143.743 83.6469 140.064 41.5975 111.86 17.9312C83.6556 -5.735 41.6062 -2.05616 17.94 26.1482C-5.72625 54.3525 -2.0474 96.4019 26.1569 120.068ZM50.6545 90.8861C62.7421 101.029 80.7633 99.4522 90.906 87.3646C101.049 75.277 99.472 57.2558 87.3844 47.1132C75.2968 36.9705 57.2757 38.5471 47.133 50.6347C36.9903 62.7223 38.567 80.7435 50.6545 90.8861Z" stroke="#BCCCFF" stroke-width="4" fill="none"></path> <path d="M131.663 46.1995C144.256 80.7972 126.417 119.052 91.8191 131.645L78.7901 95.848C93.6177 90.4512 101.263 74.0561 95.866 59.2285L131.663 46.1995Z" stroke="#BCCCFF" stroke-width="4" fill="none"></path> <path d="M6.37253 91.8007C-6.22002 57.203 11.6187 18.9477 46.2164 6.35514L59.2455 42.1521C44.4179 47.5489 36.7727 63.944 42.1695 78.7716L6.37253 91.8007Z" stroke="#BCCCFF" stroke-width="4" fill="none"></path></svg>